<svg xmlns="http://www.w3.org/2000/svg" viewBox="0 0 512 512" width="512" height="512">
  <defs>
    <linearGradient id="bgGrad" x1="0%" y1="0%" x2="100%" y2="100%">
      <stop offset="0%" stop-color="#0f172a" />
      <stop offset="50%" stop-color="#090d16" />
      <stop offset="100%" stop-color="#030712" />
    </linearGradient>
    <linearGradient id="primaryGrad" x1="0%" y1="0%" x2="100%" y2="100%">
      <stop offset="0%" stop-color="#00f2fe" />
      <stop offset="50%" stop-color="#38bdf8" />
      <stop offset="100%" stop-color="#00e599" />
    </linearGradient>
    <linearGradient id="plateGrad" x1="0%" y1="0%" x2="100%" y2="100%">
      <stop offset="0%" stop-color="#38bdf8" />
      <stop offset="100%" stop-color="#0284c7" />
    </linearGradient>
    <filter id="glow" x="-20%" y="-20%" width="140%" height="140%">
      <feGaussianBlur stdDeviation="12" result="blur" />
      <feComposite in="SourceGraphic" in2="blur" operator="over" />
    </filter>
  </defs>
  <rect width="512" height="512" rx="128" fill="url(#bgGrad)" stroke="#1e293b" stroke-width="6"/>
  <circle cx="256" cy="256" r="195" fill="none" stroke="url(#primaryGrad)" stroke-width="4" stroke-dasharray="14 10" opacity="0.35" />
  <circle cx="256" cy="256" r="165" fill="#00f2fe" opacity="0.04" />
  <g transform="rotate(-45 256 256)" filter="url(#glow)">
    <rect x="238" y="110" width="36" height="292" rx="18" fill="url(#primaryGrad)" />
    <rect x="246" y="180" width="20" height="152" rx="10" fill="#ffffff" opacity="0.85" />
    <line x1="240" y1="210" x2="272" y2="210" stroke="#090d16" stroke-width="4" />
    <line x1="240" y1="230" x2="272" y2="230" stroke="#090d16" stroke-width="4" />
    <line x1="240" y1="250" x2="272" y2="250" stroke="#090d16" stroke-width="4" />
    <line x1="240" y1="270" x2="272" y2="270" stroke="#090d16" stroke-width="4" />
    <line x1="240" y1="290" x2="272" y2="290" stroke="#090d16" stroke-width="4" />
    <rect x="186" y="140" width="140" height="28" rx="8" fill="url(#plateGrad)" />
    <rect x="206" y="105" width="100" height="28" rx="8" fill="url(#primaryGrad)" />
    <rect x="226" y="70" width="60" height="28" rx="8" fill="#00e599" />
    <rect x="230" y="172" width="52" height="14" rx="4" fill="#94a3b8" />
    <rect x="230" y="326" width="52" height="14" rx="4" fill="#94a3b8" />
    <rect x="186" y="344" width="140" height="28" rx="8" fill="url(#plateGrad)" />
    <rect x="206" y="379" width="100" height="28" rx="8" fill="url(#primaryGrad)" />
    <rect x="226" y="414" width="60" height="28" rx="8" fill="#00e599" />
  </g>
</svg>